<svg width="32" height="32" viewBox="0 0 32 32" fill="none" xmlns="http://www.w3.org/2000/svg">
  <path
    d="M32 32V32.5H32.5V32H32ZM0 32.5H1.33333V31.5H0V32.5ZM4 32.5H6.66667V31.5H4V32.5ZM9.33333 32.5H12V31.5H9.33333V32.5ZM14.6667 32.5H17.3333V31.5H14.6667V32.5ZM20 32.5H22.6667V31.5H20V32.5ZM25.3333 32.5H28V31.5H25.3333V32.5ZM30.6667 32.5H32V31.5H30.6667V32.5ZM32.5 32V30.6667H31.5V32H32.5ZM32.5 28V25.3333H31.5V28H32.5ZM32.5 22.6667V20H31.5V22.6667H32.5ZM32.5 17.3333V14.6667H31.5V17.3333H32.5ZM32.5 12V9.33333H31.5V12H32.5ZM32.5 6.66667V4H31.5V6.66667H32.5ZM32.5 1.33334V0H31.5V1.33334H32.5ZM32 32V33H33V32H32ZM0 33H1.33333V31H0V33ZM4 33H6.66667V31H4V33ZM9.33333 33H12V31H9.33333V33ZM14.6667 33H17.3333V31H14.6667V33ZM20 33H22.6667V31H20V33ZM25.3333 33H28V31H25.3333V33ZM30.6667 33H32V31H30.6667V33ZM33 32V30.6667H31V32H33ZM33 28V25.3333H31V28H33ZM33 22.6667V20H31V22.6667H33ZM33 17.3333V14.6667H31V17.3333H33ZM33 12V9.33333H31V12H33ZM33 6.66667V4H31V6.66667H33ZM33 1.33334V0H31V1.33334H33Z"
    fill="#8b5cf6" fill-opacity="0.07" />
</svg>